<mxfile host="app.diagrams.net" modified="2023-02-23T02:45:02.575Z" agent="5.0 (Macintosh; Intel Mac OS X 10_15_7) AppleWebKit/537.36 (KHTML, like Gecko) Chrome/110.0.0.0 Safari/537.36" etag="EsJE9_LkOw7aIvC2YAkK" version="20.5.3" type="github">
  <diagram id="47-tV00RdlozMVMt53zf" name="第 1 页">
    <mxGraphModel dx="2066" dy="1059" grid="1" gridSize="10" guides="1" tooltips="1" connect="1" arrows="1" fold="1" page="1" pageScale="1" pageWidth="827" pageHeight="1169" math="0" shadow="0">
      <root>
        <mxCell id="0" />
        <mxCell id="1" parent="0" />
        <mxCell id="IKSbW_vGb9FDxoLHLlYT-3" value="" style="edgeStyle=orthogonalEdgeStyle;rounded=0;orthogonalLoop=1;jettySize=auto;html=1;" edge="1" parent="1" source="IKSbW_vGb9FDxoLHLlYT-1" target="IKSbW_vGb9FDxoLHLlYT-2">
          <mxGeometry relative="1" as="geometry" />
        </mxCell>
        <mxCell id="IKSbW_vGb9FDxoLHLlYT-6" value="" style="edgeStyle=orthogonalEdgeStyle;rounded=0;orthogonalLoop=1;jettySize=auto;html=1;" edge="1" parent="1" source="IKSbW_vGb9FDxoLHLlYT-1" target="IKSbW_vGb9FDxoLHLlYT-2">
          <mxGeometry relative="1" as="geometry" />
        </mxCell>
        <mxCell id="IKSbW_vGb9FDxoLHLlYT-1" value="业务模块注入CentralDogma" style="rounded=1;whiteSpace=wrap;html=1;" vertex="1" parent="1">
          <mxGeometry x="210" y="420" width="120" height="60" as="geometry" />
        </mxCell>
        <mxCell id="IKSbW_vGb9FDxoLHLlYT-5" value="" style="edgeStyle=orthogonalEdgeStyle;rounded=0;orthogonalLoop=1;jettySize=auto;html=1;" edge="1" parent="1" source="IKSbW_vGb9FDxoLHLlYT-2" target="IKSbW_vGb9FDxoLHLlYT-4">
          <mxGeometry relative="1" as="geometry" />
        </mxCell>
        <mxCell id="IKSbW_vGb9FDxoLHLlYT-2" value="指定监听的文件地址" style="whiteSpace=wrap;html=1;rounded=1;" vertex="1" parent="1">
          <mxGeometry x="210" y="500" width="120" height="60" as="geometry" />
        </mxCell>
        <mxCell id="IKSbW_vGb9FDxoLHLlYT-4" value="重写监听赋值逻辑" style="whiteSpace=wrap;html=1;rounded=1;" vertex="1" parent="1">
          <mxGeometry x="210" y="584.5" width="120" height="60" as="geometry" />
        </mxCell>
        <mxCell id="IKSbW_vGb9FDxoLHLlYT-9" value="" style="edgeStyle=orthogonalEdgeStyle;rounded=0;orthogonalLoop=1;jettySize=auto;html=1;" edge="1" parent="1" source="IKSbW_vGb9FDxoLHLlYT-7" target="IKSbW_vGb9FDxoLHLlYT-1">
          <mxGeometry relative="1" as="geometry" />
        </mxCell>
        <mxCell id="IKSbW_vGb9FDxoLHLlYT-7" value="初始化CentralDogma" style="whiteSpace=wrap;html=1;rounded=1;" vertex="1" parent="1">
          <mxGeometry x="210" y="330" width="120" height="60" as="geometry" />
        </mxCell>
        <mxCell id="IKSbW_vGb9FDxoLHLlYT-12" value="" style="edgeStyle=orthogonalEdgeStyle;rounded=0;orthogonalLoop=1;jettySize=auto;html=1;" edge="1" parent="1" source="IKSbW_vGb9FDxoLHLlYT-10" target="IKSbW_vGb9FDxoLHLlYT-7">
          <mxGeometry relative="1" as="geometry" />
        </mxCell>
        <mxCell id="IKSbW_vGb9FDxoLHLlYT-10" value="填写相关配置" style="whiteSpace=wrap;html=1;rounded=1;" vertex="1" parent="1">
          <mxGeometry x="210" y="250" width="120" height="60" as="geometry" />
        </mxCell>
        <mxCell id="IKSbW_vGb9FDxoLHLlYT-18" value="" style="edgeStyle=orthogonalEdgeStyle;rounded=0;orthogonalLoop=1;jettySize=auto;html=1;" edge="1" parent="1" source="IKSbW_vGb9FDxoLHLlYT-16" target="IKSbW_vGb9FDxoLHLlYT-10">
          <mxGeometry relative="1" as="geometry" />
        </mxCell>
        <mxCell id="IKSbW_vGb9FDxoLHLlYT-16" value="导入相关依赖" style="whiteSpace=wrap;html=1;rounded=1;" vertex="1" parent="1">
          <mxGeometry x="210" y="170" width="120" height="60" as="geometry" />
        </mxCell>
        <mxCell id="IKSbW_vGb9FDxoLHLlYT-32" value="" style="edgeStyle=orthogonalEdgeStyle;rounded=0;orthogonalLoop=1;jettySize=auto;html=1;" edge="1" parent="1" source="IKSbW_vGb9FDxoLHLlYT-28" target="IKSbW_vGb9FDxoLHLlYT-31">
          <mxGeometry relative="1" as="geometry" />
        </mxCell>
        <mxCell id="IKSbW_vGb9FDxoLHLlYT-28" value="填写相关配置" style="whiteSpace=wrap;html=1;rounded=1;" vertex="1" parent="1">
          <mxGeometry x="440" y="360" width="120" height="60" as="geometry" />
        </mxCell>
        <mxCell id="IKSbW_vGb9FDxoLHLlYT-29" value="" style="edgeStyle=orthogonalEdgeStyle;rounded=0;orthogonalLoop=1;jettySize=auto;html=1;" edge="1" parent="1" source="IKSbW_vGb9FDxoLHLlYT-30" target="IKSbW_vGb9FDxoLHLlYT-28">
          <mxGeometry relative="1" as="geometry" />
        </mxCell>
        <mxCell id="IKSbW_vGb9FDxoLHLlYT-30" value="导入相关依赖" style="whiteSpace=wrap;html=1;rounded=1;" vertex="1" parent="1">
          <mxGeometry x="440" y="220" width="120" height="60" as="geometry" />
        </mxCell>
        <mxCell id="IKSbW_vGb9FDxoLHLlYT-31" value="使用注解注入" style="whiteSpace=wrap;html=1;rounded=1;" vertex="1" parent="1">
          <mxGeometry x="440" y="500" width="120" height="60" as="geometry" />
        </mxCell>
      </root>
    </mxGraphModel>
  </diagram>
</mxfile>
